<svg preserveAspectRatio="xMidYMid meet" viewBox="21.504 0 1305.6 1360.896" xmlns="http://www.w3.org/2000/svg" version="1.0" style="max-height: 500px" width="1305.6" height="1360.896">
<metadata>
Created by potrace 1.10, written by Peter Selinger 2001-2011
</metadata>
<g stroke="none" fill="#000000" transform="translate(0.000000,1536.000000) scale(0.100000,-0.100000)">
<path d="M6670 15346 c0 -8 -10 -18 -22 -22 -12 -4 -112 -51 -223 -104 -110&#10;-54 -252 -122 -315 -153 -63 -30 -187 -90 -275 -132 -88 -43 -218 -106 -290&#10;-140 -71 -34 -200 -96 -285 -137 -421 -205 -504 -245 -615 -298 -66 -31 -190&#10;-91 -275 -132 -161 -79 -330 -160 -585 -283 -160 -77 -347 -168 -615 -298 -91&#10;-44 -205 -99 -255 -122 -49 -23 -180 -86 -290 -140 -110 -54 -245 -119 -300&#10;-145 -120 -57 -345 -166 -590 -285 -99 -48 -225 -109 -280 -135 -148 -70 -356&#10;-171 -565 -273 -102 -49 -231 -111 -288 -138 -109 -51 -144 -80 -173 -144 -18&#10;-39 -19 -165 -19 -3662 0 -2518 3 -3630 11 -3650 27 -73 59 -102 173 -157 61&#10;-29 190 -92 286 -139 275 -133 446 -215 565 -272 61 -29 196 -94 300 -145 105&#10;-51 240 -116 300 -145 156 -74 371 -178 580 -280 99 -48 225 -109 280 -135 55&#10;-26 174 -83 265 -127 283 -138 459 -223 615 -298 255 -123 424 -204 585 -283&#10;85 -41 209 -101 275 -132 113 -54 212 -102 605 -293 91 -44 210 -101 265 -127&#10;55 -26 188 -90 295 -142 107 -53 245 -119 305 -148 61 -29 189 -91 285 -138&#10;260 -126 298 -142 340 -142 45 0 119 32 533 234 528 257 629 306 633 306 2 0&#10;106 50 231 111 125 61 278 135 338 164 110 53 263 126 555 268 283 136 434&#10;209 575 277 77 37 221 107 319 155 99 48 221 106 270 130 50 23 170 81 266&#10;128 319 155 494 239 605 292 61 29 184 88 275 132 259 126 454 220 600 290 74&#10;36 198 96 275 133 272 132 462 223 613 297 160 77 192 101 223 168 18 39 19&#10;164 19 3665 0 3501 -1 3626 -19 3665 -31 67 -63 91 -223 168 -151 74 -341 165&#10;-613 297 -77 37 -201 97 -275 133 -157 75 -364 175 -610 294 -96 47 -218 106&#10;-270 130 -52 25 -167 80 -255 123 -312 152 -521 253 -610 295 -86 41 -203 97&#10;-615 297 -102 50 -225 109 -275 133 -49 23 -166 80 -260 125 -231 112 -435&#10;210 -585 282 -69 34 -206 100 -305 148 -99 48 -218 106 -265 128 -82 38 -278&#10;133 -595 287 -253 123 -442 213 -464 220 -12 3 -21 13 -21 21 0 11 -16 14 -70&#10;14 -54 0 -70 -3 -70 -14z m225 -495 c77 -37 163 -78 190 -91 28 -12 127 -59&#10;220 -105 339 -166 591 -288 645 -312 58 -27 229 -109 654 -317 142 -69 260&#10;-126 263 -126 2 0 100 -47 216 -104 117 -57 253 -123 302 -146 83 -39 164 -79&#10;600 -290 83 -40 211 -102 285 -137 160 -77 301 -145 585 -283 116 -57 248&#10;-120 295 -142 47 -22 153 -73 235 -113 365 -178 615 -299 679 -328 153 -70&#10;311 -154 311 -164 0 -11 -119 -73 -319 -167 -55 -26 -172 -82 -260 -125 -288&#10;-140 -499 -242 -606 -293 -58 -27 -168 -81 -245 -119 -77 -39 -151 -71 -165&#10;-71 -14 -1 -99 35 -190 79 -409 200 -550 268 -620 300 -41 20 -156 75 -255&#10;123 -99 48 -216 104 -260 124 -44 21 -87 41 -95 46 -21 13 -152 77 -235 115&#10;-38 18 -155 74 -260 125 -295 143 -352 170 -360 170 -5 0 -16 6 -24 13 -9 7&#10;-86 46 -171 87 -211 100 -391 186 -675 325 -132 64 -269 130 -305 147 -36 17&#10;-135 64 -220 106 -162 78 -378 182 -590 285 -69 33 -210 101 -315 152 -104 51&#10;-235 114 -290 140 -55 26 -163 78 -240 115 -77 38 -229 111 -338 164 -122 59&#10;-197 101 -195 108 5 13 104 65 289 152 57 27 203 98 324 157 121 58 254 122&#10;295 142 143 67 455 218 560 272 58 29 114 54 125 54 12 1 84 -30 160 -68z&#10;m-2189 -971 c25 -11 119 -56 208 -99 336 -164 544 -265 636 -308 52 -24 163&#10;-78 245 -118 330 -161 668 -325 671 -325 2 0 106 -50 232 -111 125 -61 256&#10;-125 292 -141 36 -17 146 -69 245 -118 440 -214 566 -276 650 -315 50 -23 169&#10;-80 265 -127 96 -47 207 -100 245 -118 85 -41 417 -201 652 -316 95 -46 198&#10;-96 228 -110 53 -24 295 -141 620 -299 83 -40 203 -98 268 -129 65 -31 116&#10;-60 112 -65 -5 -9 -290 -153 -435 -219 -36 -16 -162 -77 -280 -135 -253 -123&#10;-389 -187 -400 -187 -10 0 -191 85 -405 190 -99 49 -223 108 -275 133 -103 48&#10;-338 161 -605 292 -93 46 -215 104 -270 130 -55 26 -172 82 -260 125 -405 197&#10;-556 270 -630 305 -44 20 -156 74 -250 120 -245 120 -498 242 -585 282 -41 20&#10;-167 80 -280 135 -112 55 -245 120 -295 143 -93 44 -360 173 -620 300 -82 40&#10;-193 93 -245 118 -95 45 -337 162 -635 307 -88 43 -186 90 -217 104 -32 15&#10;-58 29 -58 32 0 3 62 34 138 70 167 80 498 242 767 374 110 55 205 99 212 100&#10;6 0 33 -9 59 -20z m-1550 -806 c66 -31 198 -95 294 -141 96 -47 218 -105 270&#10;-130 96 -46 238 -114 590 -286 107 -52 249 -120 315 -152 143 -68 312 -150&#10;570 -275 105 -51 233 -113 285 -137 52 -25 158 -76 235 -113 453 -220 548&#10;-266 625 -302 47 -22 162 -77 255 -123 94 -46 226 -110 295 -143 142 -68 372&#10;-178 605 -292 88 -43 219 -106 290 -140 145 -69 264 -127 595 -287 124 -60&#10;272 -132 330 -159 58 -27 137 -65 175 -85 l70 -36 5 -1204 c4 -879 8 -1213 17&#10;-1236 17 -48 37 -73 85 -104 63 -42 141 -41 240 5 170 79 281 132 846 407 100&#10;49 185 89 187 89 16 0 433 214 453 232 13 13 33 40 43 60 18 36 19 78 19 1252&#10;l0 1215 103 49 c56 27 185 90 287 139 102 50 230 112 285 138 172 82 444 214&#10;590 285 296 145 538 260 547 260 4 0 7 -1513 6 -3362 l-3 -3361 -71 -36 c-39&#10;-20 -86 -42 -105 -50 -19 -8 -158 -75 -309 -149 -421 -205 -529 -257 -600&#10;-290 -64 -29 -318 -152 -655 -317 -93 -46 -204 -99 -245 -118 -41 -19 -154&#10;-73 -250 -120 -199 -97 -455 -220 -610 -294 -58 -28 -179 -86 -270 -131 -150&#10;-72 -228 -110 -615 -297 -66 -32 -211 -102 -322 -156 -111 -55 -204 -99 -206&#10;-99 -4 0 -264 -126 -662 -320 -88 -43 -203 -98 -255 -123 -145 -68 -451 -215&#10;-483 -232 -16 -8 -35 -15 -43 -15 -12 0 -14 462 -12 3358 l3 3357 181 90 c204&#10;101 504 247 669 325 319 151 533 261 559 286 39 39 56 83 56 144 0 93 -59 166&#10;-154 192 -76 20 -75 20 -563 -218 -105 -52 -193 -94 -196 -94 -5 0 -439 -210&#10;-620 -301 -65 -32 -131 -59 -145 -59 -15 0 -90 31 -167 69 -368 182 -412 201&#10;-472 201 -75 0 -139 -39 -176 -109 -32 -58 -35 -112 -8 -173 24 -57 67 -92&#10;165 -137 43 -20 160 -76 260 -126 l181 -90 3 -3357 c1 -2212 -1 -3358 -8&#10;-3358 -5 0 -74 31 -152 69 -274 131 -444 214 -628 303 -102 50 -219 106 -260&#10;125 -41 19 -147 70 -235 113 -382 187 -616 300 -620 300 -3 0 -96 44 -207 99&#10;-443 216 -607 295 -688 333 -47 22 -173 83 -280 135 -107 53 -233 113 -279&#10;135 -47 22 -162 77 -255 122 -458 223 -549 268 -612 297 -38 17 -150 70 -249&#10;119 -351 171 -561 273 -615 297 -30 14 -136 64 -235 113 -99 48 -225 109 -280&#10;135 -55 26 -103 53 -107 59 -11 16 -10 6716 1 6716 5 0 71 -31 148 -69 76 -38&#10;161 -79 188 -91 28 -12 127 -59 220 -105 284 -139 566 -276 635 -307 36 -17&#10;142 -67 235 -113 308 -150 549 -267 625 -302 41 -20 176 -85 300 -145 124 -61&#10;250 -122 280 -136 52 -23 215 -102 600 -290 96 -47 220 -106 275 -132 97 -45&#10;249 -119 652 -316 228 -111 264 -123 329 -106 59 16 96 42 126 90 19 30 23 51&#10;23 113 0 71 -3 78 -35 118 -29 38 -61 57 -239 143 -113 55 -273 133 -356 173&#10;-224 109 -477 231 -595 287 -58 28 -177 85 -265 128 -216 106 -478 232 -605&#10;292 -58 28 -188 91 -290 140 -102 50 -243 119 -315 153 -168 80 -364 175 -595&#10;288 -102 49 -221 106 -265 127 -75 35 -187 89 -583 282 -90 43 -175 83 -188&#10;89 -14 5 -24 15 -22 22 4 11 176 101 301 157 29 13 151 72 272 130 121 59 281&#10;136 355 171 74 34 142 69 151 76 8 7 19 13 24 13 4 0 42 16 84 36 103 50 503&#10;243 626 304 55 27 105 49 111 49 7 1 65 -24 130 -55z m7274 -3312 c0 -552 -2&#10;-1007 -5 -1012 -2 -4 -55 -33 -117 -64 -62 -31 -120 -61 -128 -65 -8 -5 -37&#10;-18 -65 -29 -69 -28 -302 -141 -345 -167 -19 -12 -73 -38 -120 -58 -47 -19&#10;-121 -54 -165 -76 -44 -23 -83 -41 -87 -41 -5 0 -7 455 -6 1012 l3 1011 85 43&#10;c47 23 112 54 145 69 88 40 274 132 288 142 7 5 71 35 142 67 72 31 180 83&#10;240 116 61 32 116 58 123 57 10 -2 13 -195 12 -1005z"/>
<path d="M1411 7288 c-88 -15 -159 -101 -160 -193 -1 -40 6 -62 32 -105 32&#10;-55 33 -55 227 -152 294 -145 711 -348 717 -348 3 0 104 -49 226 -109 122 -60&#10;263 -128 312 -151 50 -23 149 -71 220 -107 72 -35 147 -67 167 -70 87 -13 192&#10;48 224 132 31 83 3 183 -68 235 -30 22 -205 111 -313 160 -27 12 -131 62 -230&#10;110 -483 236 -657 320 -662 320 -3 0 -100 47 -217 104 -371 183 -389 189 -475&#10;174z"/>
<path d="M1372 6345 c-106 -46 -153 -187 -96 -289 31 -56 54 -71 249 -166 83&#10;-40 227 -110 320 -155 94 -46 211 -102 260 -125 247 -114 243 -113 322 -79 93&#10;39 127 90 127 190 0 109 -35 150 -194 226 -63 30 -187 90 -275 133 -397 193&#10;-503 244 -543 261 -51 22 -124 24 -170 4z"/>
</g>
</svg>